HIERARCHY
ROOT Hips
{
 OFFSET 0.000000 0.000000 0.000000
 CHANNELS 6 Xposition Yposition Zposition Yrotation Xrotation Zrotation
 JOINT Chest
 {
  OFFSET 0.000000 9.585900 0.002600
  CHANNELS 3 Yrotation Xrotation Zrotation
  JOINT Chest2
  {
   OFFSET 0.000000 9.601200 -0.005300
   CHANNELS 3 Yrotation Xrotation Zrotation
   JOINT Chest3
   {
    OFFSET 0.000000 9.561800 0.000000
    CHANNELS 3 Yrotation Xrotation Zrotation
    JOINT Chest4
    {
     OFFSET 0.000000 9.552100 0.000000
     CHANNELS 3 Yrotation Xrotation Zrotation
     JOINT Neck
     {
      OFFSET 0.000000 14.453000 0.000000
      CHANNELS 3 Yrotation Xrotation Zrotation
      JOINT Head
      {
       OFFSET 0.000000 8.936500 -0.011300
       CHANNELS 3 Yrotation Xrotation Zrotation
       End Site
       {
        OFFSET 0.000000 17.073600 -0.006000
       }
      }
     }
     JOINT RightCollar
     {
      OFFSET -2.921100 9.558500 0.000000
      CHANNELS 3 Yrotation Xrotation Zrotation
      JOINT RightShoulder
      {
       OFFSET -13.519700 0.000000 0.000000
       CHANNELS 3 Yrotation Xrotation Zrotation
       JOINT RightElbow
       {
        OFFSET 0.000000 -29.696600 0.000000
        CHANNELS 3 Yrotation Xrotation Zrotation
        JOINT RightWrist
        {
         OFFSET 0.000000 -24.004700 0.000000
         CHANNELS 3 Yrotation Xrotation Zrotation
         End Site
         {
          OFFSET 0.000000 -17.728500 0.000000
         }
        }
       }
      }
     }
     JOINT LeftCollar
     {
      OFFSET 2.921100 9.558500 0.000000
      CHANNELS 3 Yrotation Xrotation Zrotation
      JOINT LeftShoulder
      {
       OFFSET 13.519700 0.000000 0.000000
       CHANNELS 3 Yrotation Xrotation Zrotation
       JOINT LeftElbow
       {
        OFFSET 0.000000 -29.696600 0.000000
        CHANNELS 3 Yrotation Xrotation Zrotation
        JOINT LeftWrist
        {
         OFFSET 0.000000 -24.004700 0.000000
         CHANNELS 3 Yrotation Xrotation Zrotation
         End Site
         {
          OFFSET 0.000000 -17.728500 0.000000
         }
        }
       }
      }
     }
    }
   }
  }
 }
 JOINT RightHip
 {
  OFFSET -7.771700 -0.012900 -0.001300
  CHANNELS 3 Yrotation Xrotation Zrotation
  JOINT RightKnee
  {
   OFFSET 0.000000 -40.869800 0.001200
   CHANNELS 3 Yrotation Xrotation Zrotation
   JOINT RightAnkle
   {
    OFFSET 0.000000 -39.717900 0.002100
    CHANNELS 3 Yrotation Xrotation Zrotation
    JOINT RightToe
    {
     OFFSET 0.000000 -4.965400 11.033500
     CHANNELS 3 Yrotation Xrotation Zrotation
     End Site
     {
      OFFSET 0.000000 -1.423100 5.872300
     }
    }
   }
  }
 }
 JOINT LeftHip
 {
  OFFSET 7.771700 -0.012900 -0.001300
  CHANNELS 3 Yrotation Xrotation Zrotation
  JOINT LeftKnee
  {
   OFFSET 0.000000 -40.869800 0.001200
   CHANNELS 3 Yrotation Xrotation Zrotation
   JOINT LeftAnkle
   {
    OFFSET 0.000000 -39.717900 0.002100
    CHANNELS 3 Yrotation Xrotation Zrotation
    JOINT LeftToe
    {
     OFFSET 0.000000 -4.965400 11.033500
     CHANNELS 3 Yrotation Xrotation Zrotation
     End Site
     {
      OFFSET 0.000000 -1.423100 5.872300
     }
    }
   }
  }
 }
}
MOTION
Frames: 8
Frame Time: 0.008333
-12.923030 51.145971 35.557062 179.183937 -30.863268 -9.510047 0.401740 13.076037 3.854429 0.191418 7.406526 2.166648 0.187794 9.360716 2.772038 0.151211 7.447103 2.180878 4.158529 20.123442 -0.121801 4.488577 -4.301176 -1.057156 -2.233518 1.194116 -3.290381 -14.416043 -4.890556 5.525432 26.988443 -71.313140 -10.378017 9.670610 -12.746682 -12.786568 -9.906905 2.221996 -3.506558 3.589808 1.996361 -0.668760 -79.390008 -73.115289 88.711016 10.722277 -21.193429 1.130667 -15.507311 -34.102876 6.388092 27.300602 82.188553 22.250006 -4.167378 -13.952959 3.384485 -0.093695 0.189194 -0.183843 -16.237085 -48.656233 15.487282 172.245963 77.949884 167.801728 -1.806455 -18.133623 0.502348 -0.024729 -0.093202 0.003929
-12.886843 51.220102 35.584396 179.085489 -30.791893 -9.525297 0.424773 13.049699 3.927437 0.171877 7.433171 2.180214 0.227831 9.315481 2.744862 0.157210 7.444738 2.184000 4.181189 20.101890 -0.139173 4.506559 -4.324950 -1.039342 -2.242536 1.214757 -3.314593 -14.402579 -4.908905 5.589749 26.795251 -71.298816 -10.205886 9.651878 -12.732017 -12.777316 -9.871056 2.219079 -3.507256 3.556043 1.988817 -0.716422 -79.327920 -73.111611 88.669797 10.691404 -21.176657 1.158758 -15.536983 -34.246628 6.513955 28.411228 82.219166 23.414426 -4.189820 -14.052614 3.270311 -0.114463 0.251810 -0.152507 -16.287729 -48.657118 15.682565 172.344733 78.035105 167.874470 -1.810816 -18.060376 0.502606 -0.031170 -0.127879 -0.003332
-12.839576 51.330678 35.610739 179.002986 -30.699448 -9.614611 0.444817 13.003727 4.063320 0.166924 7.435383 2.178567 0.253793 9.292817 2.732431 0.175976 7.430146 2.177491 4.198187 20.086043 -0.092536 4.529015 -4.342800 -1.065156 -2.234332 1.218650 -3.330705 -14.396722 -4.907092 5.621227 26.528148 -71.286062 -9.967536 9.634762 -12.715552 -12.769850 -9.850299 2.234950 -3.495004 3.534019 2.004275 -0.767164 -79.338725 -73.118601 88.701505 10.658304 -21.114544 1.142651 -15.691425 -34.410827 6.791722 29.187239 82.309445 24.155549 -4.104233 -14.214152 3.173923 -0.130074 0.359896 -0.120397 -16.392519 -48.643618 15.937547 172.146022 78.136973 167.682174 -1.795328 -17.919204 0.499304 -0.084745 -0.226395 -0.032379
-12.782968 51.487324 35.629172 178.956323 -30.626091 -9.776955 0.457493 12.983624 4.252680 0.174221 7.425522 2.172422 0.262710 9.280512 2.724856 0.183264 7.420306 2.171315 4.224085 20.065062 -0.077945 4.553540 -4.365715 -1.055450 -2.206596 1.211232 -3.342588 -14.392433 -4.898742 5.649058 26.449228 -71.283568 -9.905487 9.601425 -12.695438 -12.763061 -9.821212 2.237637 -3.483613 3.548036 2.033591 -0.792445 -79.418695 -73.151152 88.768858 10.655458 -21.041435 1.088173 -15.883828 -34.529715 7.119860 29.583229 82.429066 24.515956 -3.978039 -14.452101 3.122719 -0.178142 0.522357 -0.113734 -16.656381 -48.519728 16.378734 172.403794 78.300370 167.845735 -1.794514 -17.792325 0.529309 -0.111081 -0.317596 -0.049408
-12.716388 51.685065 35.647328 178.915502 -30.519511 -10.003198 0.480105 12.935577 4.502207 0.179844 7.415295 2.165821 0.269620 9.267619 2.716690 0.179849 7.415329 2.165759 4.261271 20.039032 -0.064123 4.580979 -4.388742 -1.044348 -2.163564 1.187616 -3.349469 -14.388638 -4.884815 5.672024 26.379268 -71.279046 -9.855610 9.620423 -12.703003 -12.757144 -9.792054 2.240844 -3.464363 3.574063 2.036169 -0.815513 -79.436791 -73.203420 88.761533 10.657479 -20.959435 1.028577 -16.169007 -34.652019 7.518467 30.322248 82.512174 25.233717 -3.899691 -14.732919 3.046644 -0.251125 0.744224 -0.126171 -16.976296 -48.389667 16.883305 172.608285 78.489894 167.980112 -1.736105 -17.634909 0.557984 -0.176489 -0.437243 -0.088890
-12.655253 51.918031 35.655928 178.931250 -30.423340 -10.226569 0.475240 12.875159 4.720503 0.161038 7.435225 2.160362 0.294813 9.236823 2.711684 0.173226 7.417496 2.161115 4.282832 20.024861 -0.048559 4.598862 -4.402489 -1.047590 -2.144745 1.175697 -3.359473 -14.370098 -4.875695 5.702020 26.277606 -71.263714 -9.784301 9.609802 -12.685149 -12.765424 -9.790974 2.263867 -3.436579 3.610539 2.018071 -0.841072 -79.438192 -73.265518 88.732429 10.666103 -20.888955 0.974208 -16.525395 -34.755060 7.883183 30.689744 82.638887 25.596875 -3.907776 -15.005721 2.966311 -0.297305 0.943524 -0.139086 -17.237819 -48.252107 17.253309 172.601818 78.689618 167.962369 -1.661956 -17.414590 0.556382 -0.254499 -0.620426 -0.124961
-12.602003 52.171778 35.655548 178.974236 -30.335575 -10.419257 0.437692 12.828730 4.892227 0.146471 7.450487 2.152645 0.287992 9.237525 2.701161 0.214645 7.380203 2.162096 4.284101 20.024071 -0.037455 4.620456 -4.415136 -1.046283 -2.147613 1.173930 -3.365425 -14.336620 -4.870199 5.725148 26.303597 -71.231175 -9.825921 9.597219 -12.646443 -12.809438 -9.802105 2.285139 -3.420023 3.659501 2.045155 -0.840216 -79.558777 -73.362211 88.802725 10.680734 -20.810976 0.923665 -16.857067 -34.841231 8.189723 30.747257 82.781404 25.654926 -3.967842 -15.255998 2.947418 -0.392898 1.112806 -0.183141 -17.457340 -48.099374 17.537749 172.542329 78.906359 167.890056 -1.594371 -17.169947 0.556206 -0.329834 -0.827566 -0.157467
-12.554515 52.430214 35.648404 179.014698 -30.249328 -10.580890 0.381941 12.805810 5.029054 0.153686 7.442296 2.144227 0.279791 9.238436 2.689188 0.224985 7.361379 2.158172 4.311899 20.005494 -0.027668 4.668481 -4.456741 -1.017647 -2.129773 1.157258 -3.368035 -14.292795 -4.870069 5.749177 26.370703 -71.224244 -9.912946 9.584840 -12.641547 -12.818940 -9.806625 2.300298 -3.389630 3.724767 2.064097 -0.840853 -79.603975 -73.548206 88.777867 10.612277 -20.752165 0.903669 -17.157753 -34.909360 8.449718 30.727915 82.899991 25.622807 -3.980088 -15.456568 2.936360 -0.487813 1.235495 -0.229567 -17.646908 -47.938039 17.790032 172.517643 79.133839 167.837176 -1.560272 -16.944382 0.561695 -0.379063 -1.019890 -0.178475
